<svg width="1072" height="760" viewBox="0 0 1072 760" fill="none" xmlns="http://www.w3.org/2000/svg">
<g clip-path="url(#clip0_9_36)">
<path d="M980 0H92V672.649H980V0Z" fill="#D0CDE1"/>
<path d="M888 42.4194H184V630.229H888V42.4194Z" fill="#EAE6FC"/>
<path d="M911.445 317.946H578.97C573.585 317.946 568.421 315.807 564.613 311.999C560.806 308.192 558.667 303.027 558.667 297.643V41.6092C558.667 36.2245 556.528 31.0604 552.72 27.2528C548.913 23.4452 543.748 21.3062 538.364 21.3062H533.637C528.252 21.3062 523.088 23.4452 519.28 27.2528C515.473 31.0604 513.333 36.2245 513.333 41.6092V297.643C513.333 303.027 511.194 308.192 507.387 311.999C503.579 315.807 498.415 317.946 493.03 317.946H160.555C157.889 317.946 155.249 318.471 152.786 319.491C150.322 320.512 148.084 322.007 146.199 323.892C144.314 325.778 142.818 328.016 141.798 330.479C140.777 332.942 140.252 335.583 140.252 338.249V342.976C140.252 348.361 142.391 353.525 146.199 357.332C150.006 361.14 155.171 363.279 160.555 363.279H493.03C498.415 363.279 503.579 365.418 507.387 369.226C511.194 373.033 513.333 378.197 513.333 383.582V626.616C513.333 632 515.472 637.165 519.28 640.972C523.087 644.78 528.252 646.919 533.636 646.919H538.364C543.748 646.919 548.912 644.78 552.72 640.972C556.527 637.165 558.667 632 558.667 626.616V383.582C558.667 378.197 560.806 373.033 564.613 369.226C568.421 365.418 573.585 363.279 578.97 363.279H911.445C916.829 363.279 921.993 361.14 925.801 357.333C929.608 353.525 931.748 348.361 931.748 342.976V338.249C931.748 332.864 929.609 327.7 925.801 323.893C921.994 320.085 916.829 317.946 911.445 317.946Z" fill="#D0CDE1"/>
<path d="M476.628 614.002L434.404 525.009C433.952 524.056 433.748 523.004 433.812 521.952C433.875 520.899 434.204 519.88 434.768 518.989C435.331 518.097 436.111 517.363 437.035 516.855C437.959 516.346 438.996 516.079 440.051 516.079C441.105 516.079 442.142 515.812 443.066 515.303C443.99 514.795 444.77 514.061 445.333 513.169C445.897 512.278 446.226 511.259 446.29 510.206C446.353 509.154 446.15 508.102 445.698 507.149L410.432 432.822C409.98 431.87 409.776 430.818 409.84 429.765C409.904 428.713 410.232 427.693 410.796 426.802C411.36 425.911 412.14 425.177 413.063 424.668C413.987 424.159 415.024 423.893 416.079 423.893H428.042C429.096 423.893 430.134 423.626 431.057 423.117C431.981 422.608 432.761 421.874 433.324 420.983C433.888 420.092 434.217 419.072 434.281 418.02C434.344 416.967 434.141 415.916 433.689 414.963L396.059 335.653C395.607 334.7 395.403 333.649 395.467 332.596C395.53 331.544 395.859 330.524 396.423 329.633C396.987 328.742 397.767 328.008 398.69 327.499C399.614 326.99 400.651 326.723 401.706 326.723H405.658C406.713 326.723 407.75 326.457 408.674 325.948C409.597 325.439 410.377 324.705 410.941 323.814C411.505 322.922 411.834 321.903 411.897 320.85C411.961 319.798 411.757 318.746 411.305 317.794L360.926 211.614C360.419 210.545 359.62 209.642 358.62 209.01C357.62 208.378 356.462 208.042 355.279 208.042C354.097 208.042 352.938 208.378 351.939 209.01C350.939 209.642 350.139 210.545 349.632 211.614L299.253 317.794C298.801 318.746 298.598 319.798 298.661 320.85C298.725 321.903 299.054 322.922 299.617 323.814C300.181 324.705 300.961 325.439 301.885 325.948C302.808 326.456 303.846 326.723 304.9 326.723H308.853C309.907 326.723 310.945 326.99 311.868 327.499C312.792 328.008 313.572 328.742 314.135 329.633C314.699 330.524 315.028 331.544 315.092 332.596C315.155 333.649 314.952 334.7 314.5 335.653L276.87 414.963C276.418 415.915 276.214 416.967 276.278 418.02C276.341 419.072 276.67 420.092 277.234 420.983C277.798 421.874 278.578 422.608 279.501 423.117C280.425 423.626 281.462 423.893 282.517 423.893H294.48C295.534 423.893 296.572 424.159 297.495 424.668C298.419 425.177 299.199 425.911 299.762 426.802C300.326 427.693 300.655 428.713 300.719 429.765C300.782 430.818 300.579 431.87 300.127 432.822L264.861 507.149C264.409 508.102 264.205 509.154 264.269 510.206C264.333 511.259 264.662 512.278 265.225 513.169C265.789 514.06 266.569 514.795 267.492 515.303C268.416 515.812 269.453 516.079 270.508 516.079C271.562 516.079 272.6 516.346 273.523 516.854C274.447 517.363 275.227 518.097 275.791 518.989C276.354 519.88 276.683 520.899 276.747 521.952C276.811 523.004 276.607 524.056 276.155 525.009L233.93 614.002C233.478 614.954 233.275 616.006 233.339 617.059C233.402 618.111 233.731 619.13 234.295 620.022C234.858 620.913 235.638 621.647 236.562 622.156C237.486 622.665 238.523 622.931 239.577 622.931H323.202C324.023 622.931 324.835 623.093 325.594 623.407C326.352 623.721 327.041 624.182 327.621 624.762C328.202 625.343 328.662 626.032 328.976 626.79C329.291 627.548 329.452 628.361 329.452 629.182V657.187C329.452 658.845 330.111 660.435 331.283 661.607C332.455 662.779 334.045 663.438 335.703 663.438H365.673C367.331 663.438 368.92 662.779 370.093 661.607C371.265 660.435 371.923 658.845 371.923 657.187V629.182C371.923 628.361 372.085 627.548 372.399 626.79C372.713 626.032 373.174 625.343 373.754 624.762C374.334 624.182 375.023 623.721 375.782 623.407C376.54 623.093 377.353 622.931 378.174 622.931H470.981C472.036 622.931 473.073 622.665 473.997 622.156C474.92 621.647 475.7 620.913 476.264 620.022C476.827 619.131 477.156 618.111 477.22 617.059C477.284 616.006 477.08 614.954 476.628 614.002Z" fill="#D0CDE1"/>
<path d="M808.21 527.364C840.248 527.364 866.221 501.392 866.221 469.353C866.221 437.315 840.248 411.342 808.21 411.342C776.171 411.342 750.199 437.315 750.199 469.353C750.199 501.392 776.171 527.364 808.21 527.364Z" fill="white"/>
<path d="M814.465 670.296C858.464 670.296 894.133 634.628 894.133 590.628C894.133 546.629 858.464 510.96 814.465 510.96C770.465 510.96 734.797 546.629 734.797 590.628C734.797 634.628 770.465 670.296 814.465 670.296Z" fill="white"/>
<path d="M859.525 510.079L763.674 515.023C762.966 515.059 762.301 515.376 761.826 515.902C761.351 516.429 761.105 517.122 761.142 517.831L761.424 523.305C761.442 523.655 761.529 523.999 761.68 524.316C761.831 524.633 762.043 524.917 762.303 525.152C762.564 525.388 762.869 525.569 763.2 525.687C763.53 525.804 763.881 525.855 764.232 525.837L780.523 524.997L782.291 526.519L771.357 601.233L781.553 613.238L792.624 535.414L842.488 578.34L856.272 575.305L797.061 524.144L860.083 520.894C860.433 520.875 860.777 520.788 861.094 520.638C861.411 520.487 861.695 520.275 861.93 520.014C862.166 519.753 862.347 519.449 862.465 519.118C862.582 518.787 862.633 518.436 862.615 518.086L862.333 512.612C862.296 511.903 861.98 511.239 861.453 510.764C860.927 510.289 860.233 510.043 859.525 510.079Z" fill="#762256"/>
<path d="M775.313 442.393C775.313 442.393 799.493 428.703 799.265 424.271C799.036 419.839 788.6 407.045 770.871 407.96C770.871 407.96 766.027 400.21 761.029 406.69C756.03 413.169 764.237 417.19 764.237 417.19C764.237 417.19 755.309 433.648 769.995 442.668L775.313 442.393Z" fill="#762256"/>
<path d="M785.984 463.523C788.547 463.523 790.625 461.445 790.625 458.882C790.625 456.319 788.547 454.241 785.984 454.241C783.421 454.241 781.343 456.319 781.343 458.882C781.343 461.445 783.421 463.523 785.984 463.523Z" fill="#3F3D56"/>
<path d="M829.241 461.292C831.804 461.292 833.882 459.214 833.882 456.651C833.882 454.088 831.804 452.01 829.241 452.01C826.678 452.01 824.6 454.088 824.6 456.651C824.6 459.214 826.678 461.292 829.241 461.292Z" fill="#3F3D56"/>
<path d="M812.379 467.589L803.882 468.027L805.236 494.291L813.733 493.852L812.379 467.589Z" fill="#FF6584"/>
<path d="M814.536 566.609C817.099 566.609 819.177 564.531 819.177 561.968C819.177 559.405 817.099 557.327 814.536 557.327C811.973 557.327 809.895 559.405 809.895 561.968C809.895 564.531 811.973 566.609 814.536 566.609Z" fill="#3F3D56"/>
<path d="M815.412 583.603C817.975 583.603 820.053 581.525 820.053 578.962C820.053 576.399 817.975 574.321 815.412 574.321C812.849 574.321 810.771 576.399 810.771 578.962C810.771 581.525 812.849 583.603 815.412 583.603Z" fill="#3F3D56"/>
<path d="M816.289 600.597C818.852 600.597 820.929 598.519 820.929 595.956C820.929 593.393 818.852 591.315 816.289 591.315C813.725 591.315 811.648 593.393 811.648 595.956C811.648 598.519 813.725 600.597 816.289 600.597Z" fill="#3F3D56"/>
<path d="M809.982 503.722C802.27 504.027 794.604 502.396 787.685 498.977L788.346 497.578C802.845 504.428 817.153 503.69 830.872 495.385L831.674 496.708C825.143 500.821 817.685 503.232 809.982 503.722Z" fill="#3F3D56"/>
<path d="M842.317 473.785C844.453 473.785 846.185 472.054 846.185 469.918C846.185 467.782 844.453 466.05 842.317 466.05C840.181 466.05 838.45 467.782 838.45 469.918C838.45 472.054 840.181 473.785 842.317 473.785Z" fill="#FF6584"/>
<path d="M774.341 477.291C776.477 477.291 778.209 475.559 778.209 473.424C778.209 471.288 776.477 469.556 774.341 469.556C772.206 469.556 770.474 471.288 770.474 473.424C770.474 475.559 772.206 477.291 774.341 477.291Z" fill="#FF6584"/>
<path d="M1072 668.577H0V672.163H1072V668.577Z" fill="#3F3D56"/>
<path d="M294.152 288.822C294.541 288.809 294.91 288.645 295.18 288.365C295.45 288.085 295.601 287.711 295.601 287.322C295.601 286.933 295.45 286.559 295.18 286.28C294.91 286 294.541 285.836 294.152 285.822C293.763 285.836 293.395 286 293.125 286.28C292.854 286.559 292.703 286.933 292.703 287.322C292.703 287.711 292.854 288.085 293.125 288.365C293.395 288.645 293.763 288.809 294.152 288.822Z" fill="#D0CDE1"/>
<path d="M658.523 95.5677C664.613 95.5677 669.55 90.6308 669.55 84.5407C669.55 78.4506 664.613 73.5137 658.523 73.5137C652.432 73.5137 647.495 78.4506 647.495 84.5407C647.495 90.6308 652.432 95.5677 658.523 95.5677Z" fill="#D0CDE1"/>
<path d="M669.55 171.531C673.61 171.531 676.901 168.24 676.901 164.18C676.901 160.12 673.61 156.829 669.55 156.829C665.49 156.829 662.198 160.12 662.198 164.18C662.198 168.24 665.49 171.531 669.55 171.531Z" fill="#D0CDE1"/>
<path d="M800.649 269.549C804.709 269.549 808 266.258 808 262.198C808 258.138 804.709 254.847 800.649 254.847C796.589 254.847 793.297 258.138 793.297 262.198C793.297 266.258 796.589 269.549 800.649 269.549Z" fill="#D0CDE1"/>
<path d="M496.991 667.552H186.345C186.345 640.58 197.059 614.712 216.132 595.64C235.204 576.567 261.072 565.853 288.044 565.853C344.647 548.21 418.481 553.87 496.991 565.853V667.552Z" fill="#FF6584"/>
<path d="M452.613 645.363H598.691C599.905 645.363 601.108 645.602 602.229 646.067C603.351 646.532 604.37 647.213 605.229 648.071C606.087 648.93 606.768 649.949 607.233 651.071C607.698 652.192 607.937 653.395 607.937 654.609C607.937 657.061 606.963 659.412 605.229 661.146C603.495 662.88 601.143 663.854 598.691 663.854H452.613V645.363Z" fill="#3F3D56"/>
<path d="M477.913 478.811L517.068 431.348C517.97 429.466 519.424 427.903 521.237 426.867C523.049 425.831 525.134 425.372 527.214 425.55C529.293 425.728 531.27 426.536 532.88 427.865C534.489 429.194 535.656 430.981 536.225 432.99L551.666 487.506L477.913 478.811Z" fill="#3F3D56"/>
<path d="M430.424 502.984L445.217 443.26C445.217 441.172 445.853 439.134 447.039 437.417C448.226 435.699 449.907 434.384 451.86 433.646C453.812 432.907 455.944 432.781 457.97 433.284C459.996 433.786 461.821 434.894 463.202 436.459L500.69 478.945L430.424 502.984Z" fill="#FF6584"/>
<path d="M186.345 667.553H215.93V730.422C215.93 734.307 215.165 738.154 213.678 741.744C212.191 745.333 210.012 748.595 207.265 751.342C204.517 754.089 201.256 756.268 197.666 757.755C194.077 759.242 190.23 760.007 186.345 760.007L186.345 667.553Z" fill="#FF6584"/>
<path d="M447.066 649.062H593.144C594.358 649.062 595.56 649.301 596.682 649.765C597.804 650.23 598.823 650.911 599.682 651.769C600.54 652.628 601.221 653.647 601.686 654.769C602.15 655.891 602.389 657.093 602.389 658.307C602.389 659.521 602.15 660.723 601.686 661.845C601.221 662.967 600.54 663.986 599.682 664.844C598.823 665.703 597.804 666.384 596.682 666.849C595.56 667.313 594.358 667.552 593.144 667.552H447.066V649.062Z" fill="#FF6584"/>
<path d="M496.991 667.553C552.137 667.553 596.842 622.848 596.842 567.702C596.842 512.556 552.137 467.851 496.991 467.851C441.845 467.851 397.141 512.556 397.141 567.702C397.141 622.848 441.845 667.553 496.991 667.553Z" fill="#FF6584"/>
<path d="M593.144 600.985C599.271 600.985 604.238 589.395 604.238 575.098C604.238 560.801 599.271 549.211 593.144 549.211C587.017 549.211 582.049 560.801 582.049 575.098C582.049 589.395 587.017 600.985 593.144 600.985Z" fill="#3F3D56"/>
<path d="M566.332 554.758C567.864 554.758 569.106 551.861 569.106 548.286C569.106 544.712 567.864 541.814 566.332 541.814C564.8 541.814 563.559 544.712 563.559 548.286C563.559 551.861 564.8 554.758 566.332 554.758Z" fill="#3F3D56"/>
<path d="M586.672 541.815C588.204 541.815 589.446 538.917 589.446 535.343C589.446 531.769 588.204 528.871 586.672 528.871C585.14 528.871 583.898 531.769 583.898 535.343C583.898 538.917 585.14 541.815 586.672 541.815Z" fill="#3F3D56"/>
<path d="M488.614 466.739C488.614 466.739 483.064 457.085 483.064 451.196Z" fill="#3F3D56"/>
<path d="M491.055 460.496C491.055 460.496 494.079 449.779 498.291 445.662Z" fill="#3F3D56"/>
<path d="M611.228 396.273C615.415 396.273 618.81 392.879 618.81 388.691C618.81 384.504 615.415 381.109 611.228 381.109C607.041 381.109 603.646 384.504 603.646 388.691C603.646 392.879 607.041 396.273 611.228 396.273Z" fill="#D0CDE1"/>
<path d="M588.685 260.973C592.745 260.973 596.036 257.682 596.036 253.622C596.036 249.562 592.745 246.271 588.685 246.271C584.625 246.271 581.333 249.562 581.333 253.622C581.333 257.682 584.625 260.973 588.685 260.973Z" fill="#D0CDE1"/>
<path d="M279.928 183.784C283.988 183.784 287.279 180.492 287.279 176.432C287.279 172.372 283.988 169.081 279.928 169.081C275.868 169.081 272.577 172.372 272.577 176.432C272.577 180.492 275.868 183.784 279.928 183.784Z" fill="#D0CDE1"/>
<path d="M676.802 432.863C680.862 432.863 684.154 429.572 684.154 425.512C684.154 421.451 680.862 418.16 676.802 418.16C672.742 418.16 669.451 421.451 669.451 425.512C669.451 429.572 672.742 432.863 676.802 432.863Z" fill="#D0CDE1"/>
<path d="M256.649 459.46C260.709 459.46 264 456.168 264 452.108C264 448.048 260.709 444.757 256.649 444.757C252.589 444.757 249.297 448.048 249.297 452.108C249.297 456.168 252.589 459.46 256.649 459.46Z" fill="#D0CDE1"/>
<path d="M430.631 221.766C436.721 221.766 441.658 216.829 441.658 210.739C441.658 204.649 436.721 199.712 430.631 199.712C424.541 199.712 419.604 204.649 419.604 210.739C419.604 216.829 424.541 221.766 430.631 221.766Z" fill="#D0CDE1"/>
<path d="M918.983 247.409C802.766 190.194 745.685 77.5169 726.538 31.7279C725.549 29.3341 724.011 27.2064 722.048 25.5169C720.085 23.8274 717.752 22.6233 715.238 22.002C712.694 21.352 710.033 21.3098 707.47 21.8787C704.907 22.4476 702.513 23.6118 700.484 25.277C631.476 81.2507 560.74 102.482 490.243 88.3825C432.015 76.7375 388.587 43.2976 367.882 24.4014C366.293 22.9507 364.377 21.9051 362.297 21.3537C360.217 20.8023 358.035 20.7613 355.936 21.2343C353.836 21.7073 351.883 22.6802 350.24 24.0703C348.598 25.4605 347.315 27.2267 346.502 29.2188C327.489 75.542 270.575 189.534 153.017 247.409L151.999 245.343C268.851 187.816 325.458 74.4253 344.371 28.3439C345.325 26.009 346.829 23.939 348.754 22.3099C350.68 20.6809 352.971 19.5408 355.431 18.9867C357.892 18.4326 360.45 18.4808 362.888 19.1273C365.326 19.7738 367.572 20.9994 369.435 22.6999C416.203 65.3854 541.943 150.909 699.033 23.4877C701.34 21.5962 704.06 20.2741 706.973 19.628C709.885 18.9819 712.909 19.03 715.8 19.7685C718.662 20.4758 721.318 21.8464 723.552 23.7696C725.787 25.6928 727.538 28.1146 728.664 30.8394C747.71 76.3888 804.482 188.472 920 245.343L918.983 247.409Z" fill="#3F3D56"/>
<path d="M187.057 246.376C197.87 246.376 206.635 237.611 206.635 226.798C206.635 215.986 197.87 207.221 187.057 207.221C176.245 207.221 167.479 215.986 167.479 226.798C167.479 237.611 176.245 246.376 187.057 246.376Z" fill="#762256"/>
<path d="M266.519 186.491C277.332 186.491 286.097 177.726 286.097 166.914C286.097 156.101 277.332 147.336 266.519 147.336C255.707 147.336 246.942 156.101 246.942 166.914C246.942 177.726 255.707 186.491 266.519 186.491Z" fill="#762256"/>
<path d="M328.707 87.4517C339.52 87.4517 348.285 78.6865 348.285 67.874C348.285 57.0616 339.52 48.2964 328.707 48.2964C317.895 48.2964 309.13 57.0616 309.13 67.874C309.13 78.6865 317.895 87.4517 328.707 87.4517Z" fill="#762256"/>
<path d="M447.325 90.9063C458.137 90.9063 466.902 82.1411 466.902 71.3286C466.902 60.5162 458.137 51.751 447.325 51.751C436.512 51.751 427.747 60.5162 427.747 71.3286C427.747 82.1411 436.512 90.9063 447.325 90.9063Z" fill="#762256"/>
<path d="M538.303 110.484C549.116 110.484 557.881 101.719 557.881 90.9063C557.881 80.0938 549.116 71.3286 538.303 71.3286C527.491 71.3286 518.726 80.0938 518.726 90.9063C518.726 101.719 527.491 110.484 538.303 110.484Z" fill="#762256"/>
<path d="M646.556 79.3902C657.369 79.3902 666.134 70.625 666.134 59.8125C666.134 49.0001 657.369 40.2349 646.556 40.2349C635.744 40.2349 626.979 49.0001 626.979 59.8125C626.979 70.625 635.744 79.3902 646.556 79.3902Z" fill="#762256"/>
<path d="M750.203 96.6646C761.015 96.6646 769.78 87.8994 769.78 77.0869C769.78 66.2745 761.015 57.5093 750.203 57.5093C739.39 57.5093 730.625 66.2745 730.625 77.0869C730.625 87.8994 739.39 96.6646 750.203 96.6646Z" fill="#762256"/>
<path d="M804.329 174.975C815.141 174.975 823.907 166.21 823.907 155.397C823.907 144.585 815.141 135.82 804.329 135.82C793.517 135.82 784.751 144.585 784.751 155.397C784.751 166.21 793.517 174.975 804.329 174.975Z" fill="#762256"/>
<path d="M867.668 236.011C878.481 236.011 887.246 227.246 887.246 216.434C887.246 205.621 878.481 196.856 867.668 196.856C856.856 196.856 848.091 205.621 848.091 216.434C848.091 227.246 856.856 236.011 867.668 236.011Z" fill="#762256"/>
<path d="M366 36.7567C372.09 36.7567 377.027 31.8197 377.027 25.7297C377.027 19.6396 372.09 14.7026 366 14.7026C359.91 14.7026 354.973 19.6396 354.973 25.7297C354.973 31.8197 359.91 36.7567 366 36.7567Z" fill="#3F3D56"/>
<path d="M706 36.7567C712.09 36.7567 717.027 31.8197 717.027 25.7297C717.027 19.6396 712.09 14.7026 706 14.7026C699.91 14.7026 694.973 19.6396 694.973 25.7297C694.973 31.8197 699.91 36.7567 706 36.7567Z" fill="#3F3D56"/>
</g>
<defs>
<clipPath id="clip0_9_36">
<rect width="1072" height="760.007" fill="white"/>
</clipPath>
</defs>
</svg>
