<svg width="777" height="408" viewBox="0 0 777 408" fill="none" xmlns="http://www.w3.org/2000/svg">
<g clip-path="url(#clip0_9_89)">
<path d="M775.35 297.398C771.28 323.268 758.67 348.378 737.86 364.268C717.38 379.918 691.14 385.478 665.81 390.258C635.43 395.998 604.967 401.245 574.42 405.998C570.09 406.688 565.757 407.355 561.42 407.998H383.5C383.32 407.758 383.13 407.508 382.95 407.258C382.66 406.838 382.37 406.418 382.09 405.998C381.93 405.758 381.77 405.508 381.61 405.258H493.21C496.377 405.256 499.413 403.997 501.653 401.759C503.894 399.521 505.155 396.485 505.16 393.318V244.358C505.88 242.098 506.55 239.828 507.16 237.528C510.006 226.819 511.857 215.869 512.69 204.818C513.29 197.118 513.47 189.418 513.34 181.708C512.97 160.518 510.2 139.328 507.19 118.288C506.97 116.738 506.74 115.178 506.52 113.628C504.4 99.0085 502.47 83.0985 509.84 70.2885C518.27 55.6285 536.98 49.5185 553.83 51.0185C584.14 53.7285 609.67 76.9385 622.94 104.328C636.2 131.708 639.17 162.848 640.38 193.248C641.02 209.368 640.95 226.208 638.7 242.378C646.3 224.998 653.906 207.618 661.52 190.238C665.58 180.968 669.85 171.398 677.37 164.618C693.09 150.428 719.09 153.288 735.88 166.208C752.66 179.138 761.86 199.568 767.98 219.838C775.56 244.908 779.43 271.528 775.35 297.398Z" fill="#F2F2F2"/>
<path d="M708.298 156.886C719.29 176.354 724.333 198.678 724.213 220.956C724.043 243.043 719.157 264.839 709.881 284.885C701.492 302.986 689.804 319.365 675.415 333.184C661.214 346.972 644.364 357.736 625.883 364.824C604.439 372.861 581.247 375.065 558.673 371.211C555.536 370.672 552.424 370.019 549.334 369.251C547.459 368.789 546.66 371.681 548.536 372.144C572.027 377.966 596.661 377.258 619.778 370.095C639.032 363.9 656.798 353.794 671.961 340.408C687.312 326.987 700.008 310.802 709.387 292.696C719.65 272.873 725.637 251.116 726.962 228.833C728.272 206.221 724.482 183.207 714.703 162.695C713.518 160.21 712.246 157.768 710.889 155.372C710.681 155.043 710.353 154.807 709.975 154.715C709.597 154.623 709.198 154.681 708.862 154.878C708.526 155.074 708.279 155.393 708.174 155.768C708.069 156.143 708.113 156.543 708.298 156.886Z" fill="white"/>
<path d="M549.088 50.6218C561.277 73.0889 570.775 96.9141 577.386 121.604C590.621 171.055 592.614 222.843 583.218 273.165C578.528 298.307 570.879 322.805 560.43 346.149C550.011 369.296 535.01 393.685 509.388 401.789C506.496 402.7 503.532 403.362 500.528 403.77C498.624 404.031 499.434 406.922 501.325 406.663C527.83 403.025 546.247 381.005 557.798 358.559C569.749 335.334 578.259 310.114 583.918 284.65C595.134 233.843 594.73 181.159 582.738 130.529C576.78 105.307 567.876 80.8734 556.208 57.7322C554.743 54.8342 553.233 51.9594 551.679 49.1077C550.756 47.4111 548.165 48.9236 549.088 50.6218Z" fill="white"/>
<path d="M423.64 46.2585H244.04C240.395 46.2633 236.9 47.7134 234.323 50.291C231.745 52.8686 230.295 56.3633 230.29 60.0085V149.999H257.93C259.952 149.993 261.941 150.504 263.71 151.482C265.48 152.46 266.97 153.873 268.04 155.589L277.62 170.839L286.78 185.408L288.5 188.148L298.98 204.818L299.1 205.008H437.39V60.0085C437.385 56.3632 435.935 52.8686 433.358 50.291C430.78 47.7134 427.285 46.2633 423.64 46.2585Z" fill="#CCCCCC"/>
<path d="M352.45 73.7686H263.46C261.101 73.7686 258.838 74.7057 257.17 76.3738C255.502 78.042 254.565 80.3044 254.565 82.6635C254.565 85.0226 255.502 87.2851 257.17 88.9533C258.838 90.6214 261.101 91.5586 263.46 91.5586H352.45C354.809 91.5586 357.072 90.6214 358.74 88.9533C360.408 87.2851 361.345 85.0226 361.345 82.6635C361.345 80.3044 360.408 78.042 358.74 76.3738C357.072 74.7057 354.809 73.7686 352.45 73.7686Z" fill="white"/>
<path d="M401.8 117.448H264.27C261.695 117.448 259.225 118.472 257.404 120.292C255.583 122.113 254.56 124.583 254.56 127.158C254.56 129.734 255.583 132.203 257.404 134.024C259.225 135.845 261.695 136.868 264.27 136.868H401.8C404.375 136.868 406.845 135.845 408.666 134.024C410.487 132.203 411.51 129.734 411.51 127.158C411.51 124.583 410.487 122.113 408.666 120.292C406.845 118.472 404.375 117.448 401.8 117.448Z" fill="white"/>
<path d="M410.58 157.018C409.799 155.349 408.558 153.937 407.003 152.947C405.448 151.957 403.643 151.43 401.8 151.428H264.27C264.06 151.428 263.86 151.438 263.65 151.448C265.444 152.429 266.956 153.855 268.04 155.588L277.62 170.838H401.8C403.433 170.839 405.04 170.427 406.471 169.641C407.902 168.855 409.112 167.72 409.988 166.341C410.863 164.963 411.377 163.386 411.48 161.756C411.584 160.126 411.274 158.497 410.58 157.018Z" fill="white"/>
<path d="M411.41 193.808C411.094 191.483 409.946 189.352 408.179 187.807C406.413 186.263 404.146 185.411 401.8 185.408H286.78L288.5 188.148L298.98 204.818H401.8C403.82 204.823 405.791 204.189 407.43 203.008C408.689 202.111 409.715 200.926 410.423 199.552C411.131 198.178 411.5 196.654 411.5 195.108C411.501 194.674 411.471 194.239 411.41 193.808Z" fill="white"/>
<path d="M521.19 123.758L507.19 118.288L437.39 91.0485L353.88 58.4585C350.481 57.1393 346.697 57.2217 343.359 58.6876C340.02 60.1535 337.399 62.8832 336.07 66.2785L333.15 73.7685L326.2 91.5585L316.1 117.448L308.52 136.868L302.84 151.428L295.26 170.838L289.57 185.408L289.41 185.828L288.5 188.148L298.98 204.818L299.1 205.008H493.21C494.992 205.007 496.751 205.405 498.359 206.173C499.967 206.942 501.382 208.061 502.5 209.448L503.32 207.368L513.34 181.708L529 141.578C530.322 138.179 530.242 134.395 528.778 131.054C527.314 127.714 524.585 125.09 521.19 123.758Z" fill="#762256"/>
<path d="M444.87 123.499L437.39 120.579L361.97 91.1486C359.771 90.2974 357.324 90.3508 355.164 91.2968C353.004 92.2429 351.306 94.005 350.44 96.1985C349.588 98.3989 349.641 100.847 350.59 103.008C351.538 105.169 353.303 106.866 355.5 107.729L380.41 117.449L411.22 129.469L437.39 139.689L438.4 140.079C440.597 140.932 443.044 140.878 445.202 139.929C447.36 138.981 449.054 137.214 449.911 135.018C450.768 132.822 450.718 130.375 449.773 128.216C448.828 126.056 447.065 124.359 444.87 123.499Z" fill="white"/>
<path d="M474.95 182.138L437.39 167.478L410.58 157.018L396.26 151.428L358.96 136.868L346.84 132.138C344.579 131.256 342.069 131.252 339.806 132.127C337.542 133.003 335.688 134.694 334.61 136.868C334.49 137.118 334.37 137.378 334.27 137.648C333.806 138.836 333.581 140.102 333.607 141.377C333.633 142.651 333.91 143.908 334.421 145.075C334.933 146.242 335.67 147.297 336.589 148.18C337.509 149.062 338.593 149.755 339.78 150.218L342.88 151.428L392.6 170.838L437.39 188.318L467.89 200.228C469.012 200.667 470.206 200.89 471.41 200.888C473.675 200.892 475.87 200.104 477.615 198.661C479.359 197.217 480.545 195.209 480.965 192.983C481.385 190.758 481.014 188.455 479.915 186.475C478.817 184.494 477.06 182.96 474.95 182.138Z" fill="white"/>
<path d="M437.39 203.949L434.98 203.009L411.41 193.809L389.88 185.409L352.54 170.839L334.48 163.789C333.292 163.324 332.024 163.098 330.748 163.123C329.472 163.149 328.214 163.426 327.046 163.938C325.877 164.45 324.821 165.188 323.938 166.109C323.055 167.029 322.361 168.115 321.898 169.304C321.435 170.493 321.21 171.761 321.238 173.037C321.265 174.313 321.544 175.57 322.057 176.738C322.571 177.906 323.31 178.961 324.232 179.843C325.154 180.725 326.241 181.417 327.43 181.879L336.47 185.409L381.57 203.009L386.21 204.819L386.69 205.009H440.1L437.39 203.949Z" fill="white"/>
<path d="M346.16 204.818L341.52 203.008L322.13 195.438C320.775 194.908 319.319 194.689 317.868 194.798C316.417 194.907 315.01 195.341 313.749 196.068C312.489 196.795 311.409 197.797 310.588 198.998C309.768 200.199 309.228 201.57 309.01 203.008C308.914 203.607 308.877 204.213 308.9 204.818C308.898 204.882 308.901 204.946 308.91 205.008H346.65L346.16 204.818Z" fill="white"/>
<path d="M386.21 204.819L381.57 203.009H309.01C308.914 203.607 308.877 204.213 308.9 204.819H298.98L299.1 205.009H386.69L386.21 204.819ZM386.21 204.819H298.98L299.1 205.009H386.69L386.21 204.819ZM386.21 204.819H298.98L299.1 205.009H386.69L386.21 204.819ZM386.69 205.009L386.21 204.819H298.98L299.1 205.009H386.69ZM211.68 405.259C208.515 405.254 205.481 403.994 203.243 401.756C201.005 399.518 199.745 396.484 199.74 393.319V161.949C199.743 158.782 201.001 155.745 203.24 153.505C205.478 151.265 208.513 150.004 211.68 149.999H230.29V147.999H211.68C207.983 148.005 204.44 149.478 201.827 152.093C199.214 154.708 197.745 158.252 197.74 161.949V393.319C197.743 395.993 198.515 398.61 199.964 400.858C201.412 403.106 203.476 404.89 205.91 405.999H382.09C381.93 405.759 381.77 405.509 381.61 405.259H211.68ZM503.32 207.369C502.021 205.991 500.454 204.893 498.716 204.143C496.977 203.393 495.103 203.007 493.21 203.009H300.21L289.41 185.829L289.15 185.408L279.99 170.839L269.73 154.519C268.473 152.525 266.731 150.882 264.668 149.742C262.605 148.602 260.287 148.002 257.93 147.999H211.68C207.983 148.005 204.44 149.478 201.827 152.093C199.214 154.708 197.745 158.252 197.74 161.949V393.319C197.743 395.993 198.515 398.61 199.964 400.858C201.412 403.106 203.476 404.89 205.91 405.999C207.72 406.832 209.688 407.261 211.68 407.259H493.21C495.205 407.261 497.177 406.832 498.99 405.999C501.424 404.89 503.488 403.106 504.937 400.858C506.385 398.61 507.157 395.993 507.16 393.319V216.959C507.163 213.387 505.787 209.951 503.32 207.369ZM505.16 393.319C505.155 396.485 503.894 399.521 501.653 401.759C499.413 403.997 496.377 405.256 493.21 405.259H211.68C208.515 405.254 205.481 403.994 203.243 401.756C201.005 399.518 199.745 396.484 199.74 393.319V161.949C199.743 158.782 201.001 155.745 203.24 153.505C205.478 151.265 208.513 150.004 211.68 149.999H257.93C259.952 149.993 261.941 150.504 263.71 151.482C265.48 152.46 266.97 153.873 268.04 155.589L277.62 170.839L286.78 185.408L288.5 188.148L298.98 204.819L299.1 205.009L493.21 205.008C496.378 205.011 499.416 206.271 501.657 208.512C503.897 210.752 505.157 213.79 505.16 216.958V393.319ZM386.21 204.819H298.98L299.1 205.009H386.69L386.21 204.819ZM386.21 204.819H298.98L299.1 205.009H386.69L386.21 204.819ZM386.21 204.819H298.98L299.1 205.009H386.69L386.21 204.819ZM386.21 204.819L381.57 203.009H300.21L289.41 185.829L288.5 188.148L298.98 204.819L299.1 205.009H386.69L386.21 204.819Z" fill="#3F3D56"/>
<path d="M156.928 287.77L151.2 299.746L102.283 283.352L110.736 265.677L156.928 287.77Z" fill="#FFB8B8"/>
<path d="M143.155 307.775L154.734 283.568L169.275 290.523L151.274 328.16L150.162 327.628C146.6 325.925 143.861 322.876 142.547 319.153C141.233 315.43 141.452 311.337 143.155 307.775Z" fill="#2F2E41"/>
<path d="M168.459 394.715L155.192 394.267L154.633 342.623L170.186 343.541L168.459 394.715Z" fill="#FFB8B8"/>
<path d="M144.611 390.115L171.43 391.02L170.886 407.13L129.189 405.723L129.23 404.491C129.364 400.545 131.059 396.814 133.943 394.118C136.828 391.422 140.665 389.982 144.611 390.115Z" fill="#2F2E41"/>
<path d="M189.824 178.579C189.824 178.579 149.219 168.292 130.812 183.451L120.525 213.228L79.3789 271.699L138.933 307.432L149.761 280.362L123.774 267.368L155.175 240.298L149.761 383.228L170.334 386.476C170.334 386.476 215.812 209.98 189.824 178.579Z" fill="#2F2E41"/>
<path d="M128.221 187.856L128.716 186.976C133.933 177.701 133.087 162.598 131.46 151.562C130.097 142.318 130.137 126.027 130.412 113.988C130.48 109.925 131.929 106.005 134.521 102.875C137.113 99.7453 140.694 97.5911 144.673 96.7671C157.026 94.1965 172.191 93.652 180.131 93.5557C182.288 93.5471 184.363 94.3844 185.91 95.888C187.457 97.3916 188.353 99.4417 188.406 101.598C188.648 114.562 188.573 138.203 185.356 150.887C180.581 169.712 188.047 182.505 188.123 182.632L188.574 183.385L128.221 187.856Z" fill="#762256"/>
<path d="M107.334 239.773C108.656 239.14 109.823 238.225 110.753 237.092C111.682 235.96 112.353 234.637 112.716 233.217C113.079 231.797 113.127 230.315 112.855 228.875C112.584 227.434 112 226.071 111.145 224.881L134.06 126.063H116.735L96.5111 222.934C94.6071 224.503 93.345 226.716 92.9638 229.154C92.5826 231.592 93.1089 234.085 94.443 236.16C95.777 238.236 97.8262 239.75 100.202 240.416C102.578 241.082 105.116 240.853 107.334 239.773Z" fill="#FFB8B8"/>
<path d="M246.671 142.502L208.429 106.326L198.093 120.797L223.933 143.535L190.046 170.446C189.801 170.429 189.557 170.408 189.308 170.408C187.222 170.406 185.181 171.005 183.427 172.133C181.673 173.261 180.281 174.87 179.418 176.769C178.555 178.667 178.257 180.774 178.559 182.837C178.862 184.9 179.753 186.832 181.125 188.403C182.497 189.973 184.293 191.114 186.297 191.691C188.301 192.267 190.429 192.254 192.425 191.653C194.422 191.052 196.204 189.888 197.556 188.301C198.909 186.714 199.776 184.771 200.053 182.704L200.16 182.811L246.671 142.502Z" fill="#FFB8B8"/>
<path d="M142.241 98.0373C142.241 98.0373 118.36 94.1204 116.194 112.528C114.028 130.936 112.946 130.936 112.946 130.936C112.946 130.936 130.27 127.687 134.602 132.018C138.933 136.35 142.241 98.0373 142.241 98.0373Z" fill="#762256"/>
<path d="M177.914 95.2031C177.914 95.2031 197.404 91.9547 206.066 100.617C214.729 109.279 219.06 111.445 219.06 111.445C219.06 111.445 199.57 122.273 207.149 132.018C207.149 132.018 186.576 122.273 183.328 125.521C180.079 128.77 177.914 95.2031 177.914 95.2031Z" fill="#762256"/>
<path d="M160.819 32.3383C154.671 27.4283 153.055 17.9521 156.622 10.9391C160.189 3.9261 168.254 -0.299011 176.116 0.0165189C183.978 0.332049 191.385 4.84561 195.94 11.2613C202.338 20.2737 203.681 32.7997 212.188 39.8553C219.872 46.2281 230.879 46.0455 240.849 45.5386C244.21 45.3677 247.679 45.1696 250.695 43.6764C253.711 42.1832 256.175 39.034 255.786 35.6915C258.29 39.6564 256.837 45.2155 253.477 48.4869C250.117 51.7584 245.332 53.1289 240.674 53.6746C232.457 54.5384 224.156 53.2467 216.589 49.9268C209.023 46.607 202.452 41.3735 197.523 34.7417C194.054 29.9563 191.377 24.3838 186.617 20.8802C181.857 17.3765 173.92 17.1326 170.998 22.2702C169.553 24.8112 169.694 27.9984 168.365 30.6021C167.036 33.2057 162.72 34.6096 161.441 31.9814" fill="#2F2E41"/>
<path d="M159.879 84.5557C176.447 84.5557 189.879 71.1242 189.879 54.5557C189.879 37.9871 176.447 24.5557 159.879 24.5557C143.31 24.5557 129.879 37.9871 129.879 54.5557C129.879 71.1242 143.31 84.5557 159.879 84.5557Z" fill="#2F2E41"/>
<path d="M159.698 86.904C173.262 86.904 184.259 75.9077 184.259 62.343C184.259 48.7783 173.262 37.782 159.698 37.782C146.133 37.782 135.137 48.7783 135.137 62.343C135.137 75.9077 146.133 86.904 159.698 86.904Z" fill="#FFB8B8"/>
<path d="M137.303 44.3045C140.641 45.0346 139.548 50.6341 142.186 52.8061C144.566 54.7654 147.992 52.7505 150.987 52.0211C154.768 51.1001 158.725 52.4492 162.215 54.169C165.706 55.8889 169.072 58.0233 172.88 58.8245C176.688 59.6257 181.202 58.7227 183.337 55.4691C185.378 52.3582 184.627 48.163 183.03 44.8023C181.045 40.6239 177.929 37.0849 174.035 34.5864C170.142 32.0878 165.626 30.7296 161.001 30.6655C156.375 30.6014 151.824 31.834 147.862 34.2237C143.901 36.6133 140.688 40.0646 138.588 44.1865" fill="#2F2E41"/>
<path d="M716 406.999C715.999 407.264 715.894 407.517 715.706 407.705C715.519 407.892 715.265 407.998 715 407.999H1C0.734784 407.999 0.480429 407.893 0.292892 407.706C0.105356 407.518 0 407.264 0 406.999C0 406.733 0.105356 406.479 0.292892 406.291C0.480429 406.104 0.734784 405.999 1 405.999H715C715.265 405.999 715.519 406.105 715.706 406.292C715.894 406.48 715.999 406.734 716 406.999Z" fill="#3F3D56"/>
</g>
<defs>
<clipPath id="clip0_9_89">
<rect width="777.001" height="407.998" fill="white"/>
</clipPath>
</defs>
</svg>
