<svg width="1414" height="211" viewBox="0 0 1414 211" fill="none" xmlns="http://www.w3.org/2000/svg">
<path d="M1414 0H1252V45.3285H1308V207H1357V45.3285H1414V0Z" fill="#4A2958"/>
<path fill-rule="evenodd" clip-rule="evenodd" d="M478 2.5V205H584.5C661.5 198 724 47 584.5 2.5H553.5H478ZM527 54V155C527 157.209 528.791 159 531 159H584.034C584.669 159 585.287 158.856 585.846 158.555C598.733 151.601 622.348 131.345 620 102C617.657 72.7092 596.693 55.6521 585.775 50.3634C585.262 50.1152 584.705 50 584.136 50H531C528.791 50 527 51.7909 527 54Z" fill="#4A2958"/>
<path d="M0.5 205V0H65.5L112.5 117.5L158 0H223.5V205H172V94L126 205H95L54 94V205H0.5Z" fill="#4A2958"/>
<path d="M278.5 0V44.5H424.5V0H278.5Z" fill="#762256"/>
<path d="M278.5 207.5V83H424V122.5H328.5V160.5H424V207.5H278.5Z" fill="#4A2958"/>
<path d="M1051 0V44.5H1197V0H1051Z" fill="#762256"/>
<path d="M1051 207.5V83H1196.5V122.5H1101V160.5H1196.5V207.5H1051Z" fill="#4A2958"/>
<circle cx="759.5" cy="173.5" r="37.5" fill="#762256"/>
<circle cx="760.5" cy="173.5" r="20.5" fill="#FCFCFC"/>
<circle cx="958.5" cy="44.5" r="37.5" fill="#762256"/>
<path d="M805.356 26.6807L761.862 136.559C761.093 138.501 761.948 140.708 763.824 141.625L779.171 149.128C781.245 150.142 783.745 149.194 784.625 147.06L813.284 77.5852C814.474 74.6992 818.364 74.2285 820.209 76.7472L904.701 192.129C906.564 194.674 910.503 194.161 911.653 191.224L954.548 81.6548C954.842 80.9026 954.902 80.0789 954.72 79.292L950.245 60.0171C949.512 56.8583 945.522 55.8391 943.363 58.2591L932.471 70.472C932.159 70.8213 931.912 71.2225 931.739 71.6574L904.649 139.833C903.492 142.744 899.59 143.256 897.721 140.742L812.285 25.7671C810.416 23.2508 806.509 23.7657 805.356 26.6807Z" fill="#762256"/>
<circle cx="958.5" cy="44.5" r="20.5" fill="#FCFCFC"/>
</svg>
