<svg width="1062" height="563" viewBox="0 0 1062 563" fill="none" xmlns="http://www.w3.org/2000/svg">
<g clip-path="url(#clip0_9_170)">
<path d="M1061.98 100.16V218.47L1059.98 215.49L916.49 2L915.14 0H994.66L996 2L1059.98 97.18L1061.98 100.16Z" fill="#762256"/>
<path d="M560.14 -3.17782e-05C486.567 -0.094102 413.701 14.3513 345.729 42.5061C277.756 70.6609 216.018 111.97 164.06 164.06C155.15 172.97 146.583 182.127 138.36 191.53C121.469 210.785 105.929 231.183 91.85 252.58C87.79 258.75 83.8567 265 80.05 271.33C66.3804 294.041 54.3401 317.694 44.02 342.11C42.89 344.77 41.7866 347.44 40.7099 350.12C34.7199 364.89 29.3899 379.853 24.7199 395.01C12.7258 433.876 5.04624 473.944 1.81994 514.49C0.609939 529.6 0.0032723 544.817 -6.10352e-05 560.14V561.14H1061.98V-3.17782e-05H560.14ZM1059.98 559.14H2C2.02 545.54 2.52666 532.063 3.52 518.71C6.5218 477.809 14.0546 437.368 25.98 398.13C30.64 382.79 35.9333 367.74 41.86 352.98C52.8262 325.64 65.9509 299.217 81.11 273.96C84.9 267.61 88.83 261.343 92.9 255.16C106.948 233.692 122.458 213.217 139.32 193.88C241.72 76.38 392.41 1.99997 560.14 1.99997H1059.98V559.14Z" fill="#3F3D56"/>
<path d="M495.593 480.863C509.08 521.453 504.343 559.565 504.343 559.565C504.343 559.565 477.74 531.867 464.253 491.277C450.766 450.687 455.502 412.576 455.502 412.576C455.502 412.576 482.106 440.274 495.593 480.863Z" fill="#762256"/>
<path d="M513.093 480.863C499.606 521.453 504.343 559.565 504.343 559.565C504.343 559.565 530.946 531.867 544.433 491.277C557.92 450.687 553.184 412.576 553.184 412.576C553.184 412.576 526.58 440.274 513.093 480.863Z" fill="#762256"/>
<path d="M518.525 481.302C519.429 524.065 503.654 559.079 503.654 559.079C503.654 559.079 486.412 524.763 485.508 482C484.604 439.238 500.38 404.223 500.38 404.223C500.38 404.223 517.621 438.54 518.525 481.302Z" fill="#3F3D56"/>
<path d="M503.645 561.655C524.71 561.655 541.786 560.718 541.786 559.562C541.786 558.406 524.71 557.469 503.645 557.469C482.58 557.469 465.503 558.406 465.503 559.562C465.503 560.718 482.58 561.655 503.645 561.655Z" fill="#3F3D56"/>
<path d="M140.01 560.213C151.962 560.213 161.651 550.524 161.651 538.571C161.651 526.619 151.962 516.93 140.01 516.93C128.058 516.93 118.369 526.619 118.369 538.571C118.369 550.524 128.058 560.213 140.01 560.213Z" fill="#F2F2F2"/>
<path d="M143.98 503.56C136.221 503.571 128.784 506.658 123.298 512.145C117.813 517.633 114.728 525.071 114.72 532.83C114.72 532.99 114.72 533.15 114.73 533.31C114.825 538.712 116.411 543.983 119.312 548.541C122.213 553.099 126.316 556.767 131.17 559.14C132.888 559.987 134.687 560.657 136.54 561.14C141.421 562.42 146.549 562.42 151.43 561.14C153.283 560.657 155.082 559.987 156.8 559.14C162.751 556.241 167.543 551.411 170.395 545.437C173.246 539.464 173.989 532.7 172.501 526.25C171.013 519.8 167.383 514.045 162.203 509.924C157.023 505.803 150.599 503.56 143.98 503.56ZM151.14 559.14C148.807 559.781 146.399 560.104 143.98 560.1C143.5 560.1 143.02 560.09 142.55 560.06H142.54C140.609 559.964 138.694 559.656 136.83 559.14C132.89 558.061 129.242 556.113 126.153 553.439C123.064 550.766 120.613 547.435 118.98 543.69V543.68C116.768 538.58 116.169 532.926 117.261 527.476C118.354 522.026 121.086 517.04 125.093 513.187C129.099 509.334 134.187 506.797 139.676 505.917C145.164 505.038 150.791 505.857 155.801 508.265C160.81 510.674 164.964 514.556 167.705 519.392C170.446 524.228 171.643 529.786 171.136 535.321C170.629 540.857 168.442 546.105 164.868 550.362C161.294 554.619 156.504 557.682 151.14 559.14Z" fill="#3F3D56"/>
<path d="M389.99 391.524H227.99V420.29H389.99V391.524Z" fill="#F2F2F2"/>
<path d="M894.99 122.524H732.99V151.29H894.99V122.524Z" fill="#F2F2F2"/>
<path d="M894.99 185.524H732.99V214.29H894.99V185.524Z" fill="#F2F2F2"/>
<path d="M894.99 246.524H732.99V275.29H894.99V246.524Z" fill="#F2F2F2"/>
<path d="M894.99 307.524H732.99V336.29H894.99V307.524Z" fill="#F2F2F2"/>
<path d="M894.99 370.524H732.99V399.29H894.99V370.524Z" fill="#F2F2F2"/>
<path d="M894.99 433.524H732.99V462.29H894.99V433.524Z" fill="#F2F2F2"/>
<path d="M226.99 381.29V421.29H442.99V381.29H226.99ZM440.99 419.29H228.99V383.29H440.99V419.29Z" fill="#3F3D56"/>
<path d="M586.99 166.29C592.513 166.29 596.99 161.813 596.99 156.29C596.99 150.767 592.513 146.29 586.99 146.29C581.467 146.29 576.99 150.767 576.99 156.29C576.99 161.813 581.467 166.29 586.99 166.29Z" fill="#3F3D56"/>
<path d="M586.99 228.29C592.513 228.29 596.99 223.813 596.99 218.29C596.99 212.767 592.513 208.29 586.99 208.29C581.467 208.29 576.99 212.767 576.99 218.29C576.99 223.813 581.467 228.29 586.99 228.29Z" fill="#3F3D56"/>
<path d="M586.99 290.29C592.513 290.29 596.99 285.813 596.99 280.29C596.99 274.767 592.513 270.29 586.99 270.29C581.467 270.29 576.99 274.767 576.99 280.29C576.99 285.813 581.467 290.29 586.99 290.29Z" fill="#3F3D56"/>
<path d="M586.99 352.29C592.513 352.29 596.99 347.813 596.99 342.29C596.99 336.767 592.513 332.29 586.99 332.29C581.467 332.29 576.99 336.767 576.99 342.29C576.99 347.813 581.467 352.29 586.99 352.29Z" fill="#3F3D56"/>
<path d="M586.99 414.29C592.513 414.29 596.99 409.813 596.99 404.29C596.99 398.767 592.513 394.29 586.99 394.29C581.467 394.29 576.99 398.767 576.99 404.29C576.99 409.813 581.467 414.29 586.99 414.29Z" fill="#3F3D56"/>
<path d="M586.99 476.29C592.513 476.29 596.99 471.813 596.99 466.29C596.99 460.767 592.513 456.29 586.99 456.29C581.467 456.29 576.99 460.767 576.99 466.29C576.99 471.813 581.467 476.29 586.99 476.29Z" fill="#3F3D56"/>
<path d="M950.99 155.29H676.99V157.29H950.99V155.29Z" fill="#3F3D56"/>
<path d="M950.99 217.29H676.99V219.29H950.99V217.29Z" fill="#3F3D56"/>
<path d="M950.99 279.29H676.99V281.29H950.99V279.29Z" fill="#3F3D56"/>
<path d="M950.99 341.29H676.99V343.29H950.99V341.29Z" fill="#3F3D56"/>
<path d="M950.99 403.29H676.99V405.29H950.99V403.29Z" fill="#3F3D56"/>
<path d="M950.99 465.29H676.99V467.29H950.99V465.29Z" fill="#3F3D56"/>
<path d="M1000.35 523.216L974.064 501.65L995.63 475.364L1021.92 496.93L1000.35 523.216ZM976.879 501.373L1000.07 520.401L1019.1 497.207L995.907 478.179L976.879 501.373Z" fill="#3F3D56"/>
<path d="M619.508 53.0683L594.768 32.772L574.472 57.5118L599.212 77.8081L619.508 53.0683Z" fill="#762256"/>
<path d="M467.99 218.29C468.035 246.497 459.065 273.98 442.39 296.73C440.49 299.33 438.5 301.87 436.41 304.32C430.507 311.277 423.906 317.61 416.71 323.22C415.99 323.78 415.26 324.34 414.52 324.89C411.82 326.91 409.043 328.827 406.19 330.64C405.32 331.19 404.45 331.73 403.57 332.25C401.58 333.46 399.553 334.613 397.49 335.71C396.48 336.25 395.46 336.78 394.44 337.29C373.48 347.748 350.13 352.488 326.751 351.033C303.372 349.577 280.791 341.977 261.29 329C260.25 328.32 259.23 327.62 258.22 326.9C256.32 325.56 254.45 324.16 252.63 322.72C250.95 321.4 249.31 320.03 247.7 318.63C239.224 311.259 231.714 302.846 225.35 293.59C224.11 291.78 222.91 289.94 221.75 288.07C210.963 270.565 204.382 250.797 202.523 230.319C200.665 209.841 203.579 189.211 211.038 170.049C218.496 150.888 230.296 133.716 245.51 119.884C260.724 106.052 278.938 95.9352 298.721 90.329C318.504 84.7229 339.317 83.7798 359.526 87.5739C379.735 91.368 398.789 99.7959 415.192 112.196C431.595 124.595 444.899 140.629 454.06 159.038C463.221 177.446 467.989 197.728 467.99 218.29Z" fill="#3F3D56"/>
<path d="M329.981 211.728C349.993 211.728 366.215 195.505 366.215 175.493C366.215 155.482 349.993 139.259 329.981 139.259C309.97 139.259 293.747 155.482 293.747 175.493C293.747 195.505 309.97 211.728 329.981 211.728Z" fill="#A0616A"/>
<path d="M305.07 192.856C305.07 192.856 317.148 220.032 300.541 230.6C283.934 241.168 327.717 284.951 327.717 284.951L376.029 233.619C376.029 233.619 350.363 217.012 354.892 189.836L305.07 192.856Z" fill="#A0616A"/>
<path d="M416.71 323.22C415.99 323.78 415.26 324.34 414.52 324.89C411.82 326.91 409.043 328.827 406.19 330.64C405.32 331.19 404.45 331.73 403.57 332.25L403.2 330.24L406.68 328.43L416.71 323.22Z" fill="#A0616A"/>
<path d="M403.57 332.25C404.45 331.73 405.32 331.19 406.19 330.64L406.22 330.24L406.68 328.43L425.85 253.25L367.74 226.51L333.76 247.21L303.32 228.44C303.32 228.44 285.44 229.09 280.91 233.62C277.36 237.17 259.95 245.34 252.55 248.72C250.49 249.66 249.21 250.23 249.21 250.23C249.21 250.23 250.35 284.49 252.63 322.72C254.45 324.16 256.32 325.56 258.22 326.9C259.23 327.62 260.25 328.32 261.29 329C280.791 341.977 303.372 349.577 326.751 351.033C350.13 352.488 373.48 347.748 394.44 337.29L403.57 332.25Z" fill="#762256"/>
<path d="M261.29 248.72V329C260.25 328.32 259.23 327.62 258.22 326.9C256.32 325.56 254.45 324.16 252.63 322.72C250.95 321.4 249.31 320.03 247.7 318.63C239.224 311.259 231.714 302.846 225.35 293.59C224.11 291.78 222.91 289.94 221.75 288.07C222.73 284.85 223.83 281.293 225.05 277.4C232.6 253.25 249.21 248.72 249.21 248.72H261.29Z" fill="#762256"/>
<path d="M403.57 332.25C404.45 331.73 405.32 331.19 406.19 330.64C409.04 328.83 411.817 326.913 414.52 324.89C415.26 324.34 415.99 323.78 416.71 323.22C423.906 317.61 430.507 311.277 436.41 304.32C438.5 301.87 440.49 299.33 442.39 296.73C436.24 277.51 425.85 253.25 425.85 253.25L404.71 251.74C404.71 251.74 396.13 320.42 394.44 337.29L403.57 332.25Z" fill="#762256"/>
<path d="M307.765 133.554C305.952 135.097 304.061 136.545 302.097 137.891C299.622 139.945 297.335 142.216 295.265 144.678L292.928 147.294C290.94 149.52 288.83 152.061 288.914 155.044C288.945 156.151 289.286 157.225 289.419 158.325C289.948 162.686 287.282 167.479 289.476 171.285C290.111 172.386 291.092 173.246 291.791 174.306C292.681 175.665 293.075 177.289 292.907 178.905C295.265 179.001 297.2 176.888 297.939 174.647C298.679 172.406 298.579 169.985 298.939 167.653C299.299 165.32 300.311 162.85 302.43 161.812C306.952 159.597 312.144 165.357 316.971 163.921C320.341 162.919 322.118 158.742 325.564 158.041C328.03 157.54 330.404 159.005 332.696 160.043C334.988 161.082 338.078 161.563 339.699 159.638C340.772 158.363 340.886 156.321 342.31 155.455C344.015 154.417 346.152 155.862 347.443 157.385C348.735 158.908 350.161 160.77 352.157 160.714C354.805 160.641 356.833 157.114 359.347 157.951C362.183 158.895 360.879 163.435 362.6 165.879C364.055 167.946 367.102 167.824 369.607 167.483C370.029 167.526 370.456 167.461 370.846 167.294C371.236 167.127 371.578 166.864 371.839 166.529C372.1 166.194 372.272 165.799 372.338 165.38C372.405 164.96 372.364 164.531 372.22 164.132L371.174 150.26C371.169 149.304 370.96 148.36 370.56 147.491C369.832 146.172 368.323 145.503 367.298 144.399C365.141 142.077 365.245 138.007 362.564 136.318C361.171 135.442 359.35 135.468 357.967 134.576C356.194 133.432 355.623 131.14 354.381 129.434C352.606 126.996 349.502 125.865 346.501 125.555C343.5 125.244 340.472 125.619 337.457 125.52C331.326 125.32 325.196 123.595 319.036 124.605C313.662 125.486 311.405 130.047 307.765 133.554Z" fill="#2F2E41"/>
<path d="M1022.02 126.696C1024.33 126.696 1026.2 124.822 1026.2 122.51C1026.2 120.198 1024.33 118.324 1022.02 118.324C1019.7 118.324 1017.83 120.198 1017.83 122.51C1017.83 124.822 1019.7 126.696 1022.02 126.696Z" fill="#3F3D56"/>
<path d="M993.017 75.6962C995.329 75.6962 997.203 73.822 997.203 71.51C997.203 69.198 995.329 67.3237 993.017 67.3237C990.705 67.3237 988.83 69.198 988.83 71.51C988.83 73.822 990.705 75.6962 993.017 75.6962Z" fill="#3F3D56"/>
<path d="M981.017 20.6962C983.329 20.6962 985.203 18.822 985.203 16.51C985.203 14.198 983.329 12.3237 981.017 12.3237C978.705 12.3237 976.83 14.198 976.83 16.51C976.83 18.822 978.705 20.6962 981.017 20.6962Z" fill="#3F3D56"/>
</g>
<defs>
<clipPath id="clip0_9_170">
<rect width="1061.98" height="562.1" fill="white"/>
</clipPath>
</defs>
</svg>
